PathFileType	4	(X/Y/Z)	c:/Users/goper/Files/vsCode/490R/osim_files/C03/C03_fast_02.trc
DataRate	CameraRate	NumFrames	NumMarkers	Units                	OrigDataRate	OrigDataStartFrame	OrigNumFrames
250.00	250.00	6	36	mm	250.0	1699	2718
                Frame#	Time	LPSIS			LASIS			LTH1			LTH2			LTH3			LTH4			LLFE			LMFE			LSH1			LSH2			LSH3			LSH4			LLMAL			LMMAL			LCAL			LMTP5			LTOE			LMTP1			RPSIS			RASIS			RTH1			RTH2			RTH3			RTH4			RLFE			RMFE			RSH1			RSH2			RSH3			RSH4			RLMAL			RMMAL			RCAL			RMTP1			RTOE			RMTP5		
		X1	Y1	Z1	X2	Y2	Z2	X3	Y3	Z3	X4	Y4	Z4	X5	Y5	Z5	X6	Y6	Z6	X7	Y7	Z7	X8	Y8	Z8	X9	Y9	Z9	X10	Y10	Z10	X11	Y11	Z11	X12	Y12	Z12	X13	Y13	Z13	X14	Y14	Z14	X15	Y15	Z15	X16	Y16	Z16	X17	Y17	Z17	X18	Y18	Z18	X19	Y19	Z19	X20	Y20	Z20	X21	Y21	Z21	X22	Y22	Z22	X23	Y23	Z23	X24	Y24	Z24	X25	Y25	Z25	X26	Y26	Z26	X27	Y27	Z27	X28	Y28	Z28	X29	Y29	Z29	X30	Y30	Z30	X31	Y31	Z31	X32	Y32	Z32	X33	Y33	Z33	X34	Y34	Z34	X35	Y35	Z35	X36	Y36	Z36

1699	6.79200	-2814.77417	1007.50140	295.80698	-3001.14160	958.05951	306.83255	-3014.21753	613.02399	359.79834	-3038.43237	557.41016	344.43118	-3082.34082	641.06464	340.00531	-3098.03589	582.64075	327.04153	-3083.50806	485.28702	321.20459	-3057.87695	481.51419	214.72148	-3047.50781	296.48633	339.48053	-3058.26562	251.20541	331.95523	-3109.32349	308.69562	329.51047	-3112.09985	260.91211	323.68280	-3104.38452	98.54440	292.77747	-3113.76587	111.28311	212.05322	-3038.30566	63.79890	262.79590	-3243.34473	55.57394	292.62210	-3267.63867	77.29819	235.73958	-3241.65601	61.43418	199.06302	-2805.59351	991.82996	185.04039	-2969.88281	941.63416	107.42765	-2784.41821	579.23871	113.85194	0.00000	0.00000	0.00000	-2835.16675	572.06598	74.03386	-2837.42749	510.82272	74.21299	-2811.36450	441.03925	86.81469	-2854.64087	437.84308	190.26929	-2614.93652	390.71906	122.32169	-2580.26807	358.43823	127.75031	-2643.34839	342.99298	93.38214	-2606.92969	320.68246	102.47519	-2488.01978	227.59351	138.63722	-2515.85034	210.37541	211.64792	-2431.01465	272.99783	187.66298	-2497.64331	79.66063	215.86795	-2517.61548	60.76347	173.98737	-2457.79541	94.41013	120.21275
1700	6.79600	-2821.63696	1008.50726	295.49033	-3007.98096	959.54382	307.33844	-3020.47412	614.36108	360.21295	-3044.37964	558.61731	344.71994	-3088.58813	642.06335	339.95850	-3103.88379	583.51477	326.85971	-3087.82080	485.72672	320.94165	-3062.15234	482.08295	215.02515	-3049.83472	296.00769	339.59198	-3061.14575	251.91106	332.41534	-3112.73267	308.85040	329.11563	-3115.05542	261.11978	323.36490	-3105.49463	98.52450	293.09839	-3114.07324	111.24607	211.95236	-3038.45850	63.92376	262.88382	-3243.73755	55.27672	292.80670	-3267.87476	76.54803	235.91116	-3241.92944	61.00540	199.25374	-2811.62378	992.32819	184.49854	-2976.62549	941.88324	107.97062	-2795.71851	577.35681	113.95633	0.00000	0.00000	0.00000	-2846.42236	571.04163	73.69884	-2849.43823	509.71460	73.73407	-2823.75195	440.28244	86.09523	-2867.96753	437.17664	189.83089	-2628.69141	391.95020	121.83976	-2593.25366	360.25061	127.20735	-2657.68311	342.31653	94.23505	-2618.96558	322.26688	101.79107	-2498.84839	231.04620	138.18332	-2526.53564	213.05856	211.02129	-2445.97656	278.45209	187.27238	-2504.60229	82.62295	215.71091	-2523.13062	62.72242	173.09018	-2464.35205	98.97055	119.68921
1701	6.80000	-2827.67236	1009.69000	294.93185	-3014.81714	961.04181	307.75864	-3026.37964	615.52441	360.68817	-3049.73755	559.63092	345.07462	-3094.55981	642.93127	339.93137	-3109.43042	584.31390	326.82520	-3092.62061	485.96051	321.56152	-3066.20117	482.48819	215.35057	-3052.77979	296.31845	339.54773	-3063.58569	252.41580	332.63608	-3115.97925	309.07574	328.83536	-3117.73340	261.24594	323.07605	-3105.97070	98.54369	293.10834	-3114.47388	111.36411	212.02016	-3038.42188	64.08766	262.76929	-3243.90381	55.04751	292.97308	-3268.11694	75.88943	235.99843	-3242.03467	60.70692	199.37869	-2818.31567	992.74072	183.97813	-2983.38306	942.25995	108.53008	0.00000	0.00000	0.00000	-2803.01050	513.55688	123.70492	-2858.22925	570.86176	73.07043	-2861.57397	508.83572	73.30125	-2837.57104	439.65100	85.58082	-2881.15234	436.89612	189.47798	-2641.54517	393.31009	120.91190	-2606.13892	361.90466	126.52600	-2670.17017	343.35840	93.40908	-2631.34619	323.68964	100.98961	-2509.92725	234.52162	137.56161	-2537.69678	215.67798	210.75571	-2460.55200	283.63300	186.85043	-2512.73779	85.99347	215.36330	-2530.10986	66.69522	172.56262	-2471.87866	103.73890	119.22984
1702	6.80400	-2834.04614	1010.83868	294.45453	-3021.29395	962.40295	308.22733	-3031.81274	616.64526	361.12518	-3054.83032	560.61554	345.44165	-3100.08081	643.65668	339.99850	-3114.57202	584.93872	326.88943	-3097.38916	486.47220	321.46991	-3070.15308	483.00403	215.57628	-3055.57837	296.97205	339.68887	-3066.03906	253.01596	332.72037	-3118.89600	309.18051	328.66742	-3120.16309	261.36337	322.88766	-3106.33936	98.34303	292.94632	-3114.57446	111.31097	211.91701	-3038.13257	64.25648	262.82666	-3244.08936	54.87380	292.97345	-3268.26025	75.27094	235.95050	-3242.14355	60.31834	199.35341	-2825.73779	992.88519	183.64722	-2990.28857	942.71265	108.96629	0.00000	0.00000	0.00000	-2815.64893	512.13507	123.74689	-2868.91138	569.36011	73.17091	-2873.80933	508.13474	72.88022	-2850.33350	439.15036	85.02802	-2894.06177	436.96024	189.29906	-2654.11450	395.00314	120.08692	-2619.51465	363.72342	126.00039	-2683.14014	344.62326	92.65723	-2643.86914	325.24268	100.22160	-2521.35205	238.12444	137.05180	-2548.46069	218.69620	210.24504	-2474.78052	288.47098	186.56929	-2522.18799	89.49779	214.43509	-2539.40405	70.49381	171.64345	-2480.67969	108.45437	118.91994
1703	6.80800	-2840.79517	1011.83551	294.22009	-3027.85254	963.78522	308.66812	-3036.83862	617.60767	361.52960	-3059.53784	561.46045	345.81256	-3105.31543	644.21417	340.13498	-3119.25488	585.39545	327.00497	-3100.76001	486.46774	321.30222	-3073.94922	483.49371	215.86707	-3058.12036	297.50351	339.76508	-3068.19775	253.50491	332.73428	-3121.48022	309.27579	328.60516	-3122.38159	261.43799	322.75751	-3106.20337	98.47723	292.99808	-3115.09595	111.42843	211.99210	-3038.20386	64.37724	262.92108	-3244.63989	54.85141	292.93744	-3268.33862	74.59608	235.65309	-3242.26538	59.83451	199.14993	-2831.71997	993.45044	183.16617	-2996.85498	943.25946	109.37237	0.00000	0.00000	0.00000	-2828.34009	510.74652	123.81174	-2880.96631	569.60052	72.51649	-2886.08887	507.67621	72.51871	-2864.44751	438.74719	84.65459	-2906.89014	437.17761	189.20067	-2667.65894	396.46146	119.22525	-2632.60913	365.68994	125.14146	-2695.97925	345.84891	91.91130	-2656.28149	326.75723	99.48292	-2533.01929	241.94102	136.55020	-2559.90210	222.02994	209.99107	-2488.42480	293.09390	186.13489	-2532.38989	93.21856	213.61716	-2548.09863	72.03346	169.92470	-2490.37524	112.95659	118.52922
1704	6.81200	-2847.18286	1013.01416	293.86340	-3034.34009	965.12457	309.09067	-3040.80298	618.19305	362.65994	-3063.92896	562.24750	346.20233	-3110.19409	644.62103	340.33151	-3123.78711	585.69165	327.24454	-3104.35474	486.47641	321.43457	-3077.70996	484.00894	216.00539	-3060.22583	297.99097	339.64304	-3069.92847	253.92619	332.64160	-3123.70630	309.28152	328.60312	-3124.20068	261.44577	322.75635	-3106.65967	98.58148	292.84830	-3115.34546	111.30665	211.85477	-3038.28467	64.50960	262.95868	-3244.44482	54.62747	292.47656	-3271.81372	76.09602	236.54071	-3242.29077	59.46882	198.79935	-2838.19482	994.02649	182.69557	-3003.38550	943.78711	109.70423	0.00000	0.00000	0.00000	0.00000	0.00000	0.00000	-2892.42383	569.38525	72.24075	-2898.35400	507.42917	72.20100	-2877.92554	438.52750	84.19147	-2919.61279	437.78540	189.35019	-2681.27783	397.82031	118.20598	-2645.40991	367.68588	123.99694	-2709.08032	347.08377	91.03923	-2669.04639	328.49362	98.66832	-2544.83618	245.63991	136.15189	-2571.43286	225.58076	209.64754	-2501.67407	297.34750	185.74944	-2544.04761	96.95043	213.06879	-2558.89746	76.49882	169.42618	-2500.95044	117.20531	118.26160
